<svg width="64" height="64" viewBox="0 0 64 64" fill="none" xmlns="http://www.w3.org/2000/svg">
  <rect width="64" height="64" rx="12" fill="#16342D"/>
  <path d="M31.5972 43.782C31.5972 45.706 32.1952 47.162 33.3912 48.15C34.6132 49.112 36.2122 49.593 38.1882 49.593C39.3322 49.593 40.5282 49.489 41.7762 49.281C43.0242 49.073 44.4802 48.722 46.1442 48.228V49.32C43.7262 50.75 41.7632 51.868 40.2552 52.674C38.7732 53.454 37.4992 54 36.4332 54.312C35.3672 54.65 34.2492 54.819 33.0792 54.819C31.5972 54.819 30.1932 54.481 28.8672 53.805C27.5672 53.129 26.5012 52.05 25.6692 50.568C24.8372 49.086 24.4212 47.136 24.4212 44.718V19.056L19.4682 16.014V15.468C19.7282 15.286 20.1182 15.039 20.6382 14.727C21.1582 14.389 21.7692 13.986 22.4712 13.518C23.1992 13.05 24.0182 12.517 24.9282 11.919C25.8382 11.321 26.8262 10.684 27.8922 10.008C28.9582 9.306 30.0762 8.578 31.2462 7.824H31.5972V15.468V43.782ZM29.1792 18.276V14.064H45.0522L44.4282 18.276H29.1792Z" fill="#FCF9F0"/>
</svg>
